<?xml version="1.0" standalone="no"?>
<!DOCTYPE svg PUBLIC "-//W3C//DTD SVG 20010904//EN"
 "http://www.w3.org/TR/2001/REC-SVG-20010904/DTD/svg10.dtd">
<svg version="1.0" xmlns="http://www.w3.org/2000/svg"
 width="666.000000pt" height="374.000000pt" viewBox="0 0 666.000000 374.000000"
 preserveAspectRatio="xMidYMid meet">

<g transform="translate(0.000000,374.000000) scale(0.100000,-0.100000)"
fill="#000000" stroke="none">
<path d="M3445 3206 c-22 -13 -74 -42 -115 -64 -60 -32 -76 -46 -78 -66 -3
-21 -17 -33 -71 -60 -104 -52 -143 -79 -182 -127 -20 -24 -54 -53 -75 -65 -76
-41 -139 -77 -164 -93 -14 -10 -54 -32 -90 -51 -51 -27 -310 -179 -390 -230
-92 -58 -263 -150 -278 -150 -11 0 -46 -15 -79 -33 -32 -17 -71 -39 -87 -47
-16 -8 -47 -31 -70 -51 -22 -20 -60 -47 -82 -60 -175 -101 -235 -137 -279
-164 -27 -18 -80 -48 -117 -68 l-66 -36 -41 17 -41 17 0 188 0 188 35 36 c55
57 85 127 85 199 0 73 -23 110 -74 120 -89 16 -196 -117 -200 -247 -1 -64 13
-87 70 -114 l34 -16 0 -195 0 -194 -44 -28 c-24 -15 -64 -39 -90 -52 l-47 -25
3 -74 3 -74 230 -133 c127 -74 236 -137 244 -140 7 -4 61 -36 120 -72 58 -36
243 -144 411 -240 168 -96 426 -244 575 -330 148 -86 277 -155 286 -155 8 1
67 32 130 69 63 37 139 81 169 97 95 51 206 115 302 173 106 65 363 212 393
225 11 5 34 18 50 28 17 10 48 28 70 41 22 12 65 37 95 55 238 142 478 284
518 306 26 14 65 36 87 49 22 12 60 34 85 48 76 43 493 293 530 317 19 13 57
35 85 50 27 14 53 31 57 38 4 7 8 39 8 73 0 64 -5 72 -60 103 -14 8 -79 45
-145 84 -66 38 -237 136 -380 218 -143 83 -267 154 -275 159 -21 14 -107 62
-176 100 -54 30 -420 239 -454 260 -192 115 -354 210 -368 214 -9 3 -35 -5
-57 -18z m44 -98 c6 -51 14 -108 17 -126 l6 -33 -36 22 c-44 26 -51 39 -60
104 -4 28 -9 58 -12 67 -4 12 5 24 28 38 18 11 36 20 39 20 4 0 12 -42 18 -92z
m155 -10 c2 -18 12 -78 20 -132 9 -54 15 -101 12 -103 -2 -3 -19 4 -38 13 -18
10 -37 17 -41 16 -11 -3 -70 29 -64 35 3 2 17 -3 31 -13 15 -9 29 -14 33 -10
5 5 -11 119 -34 239 l-5 28 41 -20 c32 -17 41 -28 45 -53z m-314 -13 c0 -23
-2 -24 -25 -13 -27 12 -32 24 -12 31 26 11 37 6 37 -18z m5 -55 c4 -6 -7 -5
-26 3 -18 7 -35 19 -37 26 -5 15 52 -12 63 -29z m483 -18 c5 -9 13 -51 16 -92
4 -41 12 -95 17 -119 5 -24 8 -46 5 -48 -2 -3 -23 6 -45 19 -35 20 -41 29 -47
68 -3 25 -12 77 -20 115 -8 39 -14 80 -14 93 l0 22 40 -20 c21 -11 43 -28 48
-38z m-460 -23 c44 -24 78 -36 80 -30 7 20 79 -26 90 -59 6 -16 7 -30 2 -30
-5 0 -11 9 -15 20 -7 22 -51 60 -69 60 -6 -1 -1 -9 12 -20 l23 -19 -63 -32
c-110 -55 -164 -96 -189 -144 -13 -25 -27 -45 -31 -45 -12 0 -10 8 17 50 14
22 25 43 25 48 0 10 -176 112 -194 112 -17 0 -50 -75 -41 -91 5 -8 4 -10 -3
-5 -29 17 8 90 66 129 64 44 166 96 190 97 13 0 58 -18 100 -41z m43 21 c31
-25 12 -26 -21 0 -14 11 -20 20 -14 20 7 0 22 -9 35 -20z m560 -73 c23 -16 36
-33 41 -57 21 -106 39 -222 34 -227 -2 -3 -22 5 -44 17 -38 22 -40 25 -56 104
-23 123 -30 186 -19 186 6 0 25 -10 44 -23z m-448 -99 c27 -90 28 -105 11
-118 -11 -10 -18 -10 -26 -2 -27 27 -88 0 -88 -38 0 -24 -21 -39 -133 -99 -77
-41 -101 -50 -112 -41 -8 6 -24 10 -37 8 -20 -3 -30 -17 -58 -78 -4 -8 -23
-24 -44 -35 -32 -17 -38 -18 -46 -5 -15 22 -2 71 26 100 13 14 64 48 112 75
72 42 91 58 108 94 24 46 62 91 78 91 6 0 0 -7 -12 -16 -31 -21 -57 -85 -40
-96 10 -6 10 -10 -1 -17 -21 -13 5 -24 29 -11 11 6 20 19 20 30 0 12 16 30 40
46 34 22 40 32 40 60 0 38 -5 41 -40 18 -18 -12 -21 -13 -10 -2 8 8 32 25 54
38 37 22 38 23 27 2 -11 -21 -15 -72 -6 -72 12 0 84 40 90 50 10 17 -5 50 -23
50 -15 0 -15 2 -2 10 24 15 26 13 43 -42z m140 12 c14 -11 34 -20 45 -20 11 0
30 -9 43 -20 29 -23 13 -27 -19 -4 -22 15 -23 15 -16 -10 7 -29 3 -31 -29 -15
-36 19 -67 51 -67 71 0 23 11 23 43 -2z m487 -15 c22 -14 40 -31 40 -38 1 -28
29 -214 36 -231 4 -10 3 -17 -2 -15 -68 31 -84 45 -89 73 -2 17 -11 73 -20
124 -21 131 -24 124 35 87z m-553 -16 c78 -43 133 -81 128 -89 -3 -5 -36 -25
-73 -46 -106 -59 -124 -69 -178 -101 -27 -17 -71 -42 -97 -56 -96 -54 -283
-160 -306 -174 -15 -10 -20 -18 -13 -25 11 -11 -15 -25 402 212 163 94 303
170 309 170 7 0 59 -27 118 -60 58 -33 108 -60 111 -60 3 0 -2 8 -10 18 -18
19 -33 62 -23 62 22 0 89 -49 102 -73 16 -31 11 -46 -9 -30 -7 5 -22 13 -33
17 -16 5 -15 2 5 -14 14 -11 28 -20 32 -20 3 0 35 -16 70 -36 34 -20 88 -50
118 -67 30 -16 62 -35 70 -42 8 -7 25 -16 36 -19 12 -4 29 -15 39 -25 20 -23
39 -10 -235 -163 -86 -48 -425 -241 -429 -245 -3 -2 0 -8 6 -14 9 -9 32 0 90
34 43 24 94 53 113 64 19 11 139 79 266 151 127 73 236 132 243 132 13 0 69
-30 326 -175 66 -38 154 -87 195 -110 132 -75 140 -80 140 -91 0 -6 -33 -31
-72 -54 -92 -54 -544 -318 -578 -336 -14 -8 -104 -61 -200 -119 -196 -116
-526 -307 -610 -353 -102 -55 -313 -178 -390 -227 -58 -37 -207 -115 -220
-115 -8 0 -10 9 -6 24 7 28 -6 40 -89 86 -33 18 -66 38 -74 44 -15 12 -80 49
-276 156 -155 85 -172 97 -159 109 5 6 164 98 354 207 421 240 395 223 382
236 -8 8 -126 -55 -393 -207 -210 -120 -387 -218 -394 -218 -13 0 -644 355
-644 363 0 3 153 93 342 200 430 245 422 239 409 252 -9 9 -189 -90 -762 -419
-24 -14 -32 -11 -180 75 -209 120 -283 167 -287 178 -2 5 14 18 34 29 21 11
106 60 188 109 83 49 174 102 202 118 51 28 52 28 44 7 -4 -14 -41 -42 -92
-70 -111 -64 -144 -96 -153 -148 -3 -22 -11 -41 -16 -41 -6 0 -10 -11 -10 -24
0 -20 19 -35 128 -95 71 -39 134 -71 142 -71 7 0 34 13 61 30 27 16 51 25 54
20 17 -28 85 5 85 41 0 21 28 42 143 103 72 38 91 45 108 36 30 -17 58 -2 77
38 9 21 26 45 37 54 20 16 20 16 -2 104 -13 48 -30 95 -37 103 -8 9 -56 39
-105 66 -50 28 -91 52 -90 55 0 3 55 37 122 77 67 39 190 112 272 161 83 49
220 128 305 177 85 48 170 97 189 108 19 12 32 16 28 10 -4 -6 -45 -32 -92
-59 -98 -54 -131 -88 -141 -142 -4 -20 -14 -42 -23 -49 -14 -11 -13 -14 9 -36
14 -14 66 -46 115 -72 50 -26 94 -51 100 -56 16 -16 63 -10 108 14 32 17 47
21 59 13 25 -15 67 8 74 42 6 29 11 33 152 109 73 40 86 44 108 34 32 -14 59
-1 72 36 5 16 26 46 46 67 40 44 45 63 19 73 -18 7 -33 22 -33 36 0 11 6 9 47
-14z m-472 -9 c3 -5 26 -10 51 -10 24 0 44 -4 44 -10 0 -18 -98 -12 -108 6 -7
12 -19 15 -46 12 -20 -2 -36 0 -36 4 0 12 88 10 95 -2z m-30 -74 c50 -28 90
-58 90 -65 0 -8 -40 -36 -88 -64 l-88 -50 -37 18 c-77 36 -172 96 -172 108 0
18 150 105 180 106 14 0 66 -24 115 -53z m788 -8 c11 3 70 -29 64 -34 -3 -3
-19 2 -36 10 l-31 16 7 -32 6 -32 -39 24 c-50 30 -50 30 -58 63 l-7 28 43 -23
c24 -12 47 -21 51 -20z m480 -132 c10 -71 16 -131 13 -134 -11 -10 -56 29 -62
54 -13 53 -41 229 -37 237 3 4 19 0 36 -11 31 -18 32 -20 50 -146z m-878 94
c9 -15 -16 -43 -27 -32 -10 10 0 42 12 42 5 0 12 -5 15 -10z m-596 -94 c46
-25 87 -46 92 -46 12 0 11 -5 -3 -51 -6 -22 -15 -39 -20 -39 -5 0 -54 26 -109
57 -105 60 -111 69 -89 129 10 24 12 25 28 12 9 -8 55 -36 101 -62z m1635 5
c12 -57 36 -235 32 -238 -2 -2 -20 4 -40 13 -29 14 -37 25 -42 53 -3 20 -12
69 -20 110 -8 40 -14 86 -14 103 l0 29 40 -22 c25 -14 41 -31 44 -48z m-398
-8 c-8 -8 -56 17 -56 29 0 5 14 1 31 -7 17 -9 28 -19 25 -22z m-2896 -43 c58
-58 -27 -264 -119 -287 -51 -13 -75 59 -50 152 18 67 95 153 137 155 6 0 21
-9 32 -20z m2996 -32 c4 -7 9 -7 13 0 4 6 19 3 41 -10 33 -18 18 -20 -23 -3
-15 6 -17 4 -12 -18 6 -22 4 -25 -13 -20 -30 7 -82 60 -82 82 0 20 0 20 35 0
19 -12 38 -26 41 -31z m445 19 c26 -17 35 -32 40 -62 3 -22 12 -77 19 -123 7
-46 10 -85 7 -88 -7 -7 -60 21 -76 39 -6 8 -20 70 -30 136 -19 133 -18 137 40
98z m-1521 -47 c0 -11 -7 -20 -15 -20 -15 0 -21 21 -8 33 12 13 23 7 23 -13z
m1244 -72 c28 -40 20 -50 -23 -29 -37 20 -51 37 -51 67 0 12 4 12 29 -1 17 -8
37 -25 45 -37z m450 21 c29 -17 36 -27 36 -52 0 -18 4 -50 9 -72 5 -22 12 -66
16 -98 l6 -57 -36 17 c-38 18 -38 20 -56 123 -16 97 -22 160 -16 160 3 0 22
-9 41 -21z m-398 -23 c10 -8 17 -17 14 -19 -3 -3 -16 3 -30 13 -29 22 -14 27
16 6z m87 -66 c38 -23 73 -80 48 -80 -13 0 -91 52 -91 61 0 4 -3 14 -6 23 -8
21 8 20 49 -4z m487 -14 c35 -24 36 -24 52 -147 10 -68 15 -125 13 -127 -2 -3
-21 5 -41 17 -20 12 -39 20 -42 17 -2 -3 -18 2 -35 10 -30 16 -30 16 -23 -10
3 -15 2 -26 -3 -26 -13 0 -81 40 -81 48 0 4 -3 18 -7 31 l-6 25 39 -23 c21
-13 48 -24 59 -26 11 -1 28 -6 38 -10 11 -5 17 -3 17 6 0 20 -29 200 -36 222
-8 24 15 22 56 -7z m-387 -33 c-15 -5 -53 14 -53 27 0 4 14 1 32 -8 18 -8 27
-17 21 -19z m97 -63 c14 -9 31 -15 38 -13 14 5 67 -26 58 -34 -3 -3 -17 2 -30
11 -34 22 -37 20 -26 -9 12 -31 2 -32 -50 -5 -37 19 -60 45 -60 70 0 14 35 4
70 -20z m465 -1 c42 -25 55 -46 55 -88 0 -36 13 -46 41 -31 11 7 23 9 26 6 3
-3 -7 -10 -23 -17 -16 -6 -46 -20 -67 -31 -21 -11 -41 -18 -44 -15 -7 7 -33
145 -33 175 0 27 0 27 45 1z m-3150 -46 c61 -35 79 -53 54 -53 -12 0 -149 78
-149 85 0 14 38 1 95 -32z m-21 -30 c54 -33 57 -37 40 -50 -10 -7 -24 -13 -32
-13 -18 0 -142 69 -142 79 0 34 67 27 134 -16z m235 -41 c5 -9 15 -45 22 -80
16 -75 6 -94 -35 -67 -24 16 -28 16 -49 2 -13 -8 -28 -30 -33 -47 -6 -20 -21
-39 -39 -49 -17 -9 -65 -36 -109 -60 -69 -37 -81 -41 -101 -31 -12 7 -31 9
-42 6 -20 -6 -43 -45 -43 -70 0 -19 -69 -59 -88 -51 -20 7 -10 79 14 106 10
11 60 45 111 75 80 47 96 61 117 102 13 26 32 55 43 64 25 23 195 118 210 118
7 0 17 -8 22 -18z m-411 -12 c101 -55 117 -68 114 -92 -5 -43 -19 -44 -88 -8
-78 42 -85 50 -45 50 21 0 31 -5 31 -15 0 -11 11 -15 48 -14 33 2 38 3 17 6
-16 3 -37 11 -46 19 -24 21 -79 30 -89 13 -7 -11 -10 -10 -16 4 -4 11 0 25 11
37 22 24 18 24 63 0z m3278 -68 c46 3 59 -6 24 -17 -13 -4 -20 -15 -20 -31 0
-29 -1 -29 -49 -4 -38 19 -51 36 -51 67 0 13 3 13 26 -2 18 -11 41 -16 70 -13z
m-3239 -86 c29 -17 53 -33 53 -36 0 -12 -177 -105 -197 -104 -30 2 -203 102
-203 118 0 7 42 35 93 64 l92 51 55 -31 c30 -17 78 -45 107 -62z m339 -42 c-5
-13 -10 -14 -18 -6 -6 6 -8 18 -4 28 5 13 10 14 18 6 6 -6 8 -18 4 -28z m-686
-70 c0 -16 -16 -19 -25 -4 -8 13 4 32 16 25 5 -4 9 -13 9 -21z m-393 -71 c-2
-16 -4 -5 -4 22 0 28 2 40 4 28 2 -13 2 -35 0 -50z m510 11 c-7 -7 -84 32 -92
47 -4 5 16 -1 45 -16 29 -14 50 -29 47 -31z m-394 16 c34 -20 34 -22 46 -118
7 -53 15 -114 18 -136 l5 -39 -32 19 c-17 11 -35 26 -40 34 -18 33 -49 260
-36 260 3 0 20 -9 39 -20z m243 1 c5 -4 41 -25 79 -46 88 -46 135 -78 135 -88
0 -5 -19 2 -42 16 -24 13 -76 42 -116 62 -75 40 -107 65 -80 65 8 0 18 -4 24
-9z m101 -17 c25 -14 42 -28 40 -31 -5 -5 -97 45 -97 53 0 9 15 3 57 -22z
m-507 -19 c0 -28 5 -37 24 -44 19 -8 24 -19 29 -58 3 -26 4 -49 2 -51 -3 -3
-63 25 -73 33 -7 6 -22 129 -18 142 3 7 12 13 21 13 11 0 15 -10 15 -35z m600
1 c0 -8 -4 -18 -10 -21 -5 -3 -10 3 -10 14 0 12 5 21 10 21 6 0 10 -6 10 -14z
m198 -23 c-5 -25 -28 -28 -28 -4 0 12 6 21 16 21 9 0 14 -7 12 -17z m-917 -16
c-1 -12 -15 -9 -19 4 -3 6 1 10 8 8 6 -3 11 -8 11 -12z m450 -29 c21 -11 40
-27 43 -35 7 -17 38 -254 34 -258 -2 -2 -21 9 -43 24 -25 17 -41 36 -43 51 -3
24 -29 173 -38 218 -5 27 -1 27 47 0z m184 -106 l40 -28 19 -122 c10 -67 16
-125 12 -129 -11 -11 -77 31 -81 52 -2 11 -8 43 -14 70 -5 28 -13 73 -16 100
-3 28 -8 58 -11 68 -7 23 4 21 51 -11z m181 -103 c37 -23 39 -27 54 -149 6
-47 14 -95 17 -107 7 -29 -5 -29 -48 0 -32 22 -34 26 -54 150 -12 71 -17 127
-12 127 5 0 25 -9 43 -21z m169 -91 c14 -6 27 -21 29 -32 10 -53 36 -250 33
-252 -2 -2 -17 5 -33 15 -28 17 -32 26 -48 122 -9 57 -20 116 -22 132 -6 30 2
33 41 15z m169 -99 c20 -12 36 -26 36 -32 0 -6 7 -61 16 -124 9 -63 14 -116
11 -119 -11 -11 -68 21 -73 41 -7 29 -44 237 -44 247 0 13 17 9 54 -13z m175
-104 c44 -27 47 -33 56 -130 3 -38 11 -87 16 -109 6 -21 8 -40 6 -43 -10 -10
-88 43 -92 62 -2 11 -11 67 -20 124 -9 58 -18 108 -21 113 -10 16 17 8 55 -17z
m216 -162 c5 -45 21 -140 31 -190 5 -26 -4 -28 -41 -11 -30 13 -48 73 -71 241
l-7 49 41 -21 c37 -19 41 -25 47 -68z m135 -33 c22 -11 40 -24 40 -28 1 -21
30 -220 36 -239 8 -30 -5 -29 -53 6 -38 28 -39 30 -52 122 -8 52 -16 109 -19
127 -5 38 -3 38 48 12z m179 -102 c37 -21 39 -26 51 -97 13 -80 12 -82 -43
-112 -21 -12 -21 -11 -42 100 -16 86 -19 131 -9 131 3 0 22 -10 43 -22z m160
-92 c8 -10 8 -16 -2 -25 -16 -13 -27 -5 -27 21 0 21 13 23 29 4z"/>
<path d="M2519 2302 l-22 -19 104 -58 c57 -32 115 -65 128 -73 l25 -15 -24
-19 c-12 -10 -21 -20 -19 -23 7 -6 242 -45 247 -40 3 2 -15 36 -38 75 -29 49
-47 69 -57 65 -48 -18 -61 -14 -177 55 -65 38 -124 70 -131 70 -7 0 -23 -8
-36 -18z"/>
<path d="M4504 2076 c-9 -22 4 -36 32 -36 21 0 25 4 22 23 -4 26 -45 37 -54
13z"/>
<path d="M4270 2037 c-21 -7 -42 -25 -53 -45 -19 -32 -19 -36 -3 -68 25 -54
105 -79 170 -54 46 17 30 31 -27 24 -75 -9 -117 13 -117 60 0 46 32 66 105 66
60 0 74 14 24 24 -42 8 -58 7 -99 -7z"/>
<path d="M4392 2005 c-28 -20 -52 -40 -52 -45 0 -6 22 -22 50 -38 27 -15 50
-30 50 -35 0 -4 -11 -12 -25 -17 -31 -12 -33 -40 -3 -40 25 0 108 46 108 61 0
5 -18 22 -40 37 -21 15 -39 30 -40 34 0 4 14 15 30 25 17 9 30 25 30 35 0 30
-50 22 -108 -17z"/>
<path d="M2480 1907 c-114 -54 -220 -131 -220 -160 0 -24 -52 -75 -103 -100
-61 -30 -107 -80 -107 -118 0 -13 -7 -32 -15 -42 -7 -11 -11 -25 -8 -33 4 -11
135 -94 149 -94 2 0 23 -12 45 -27 46 -30 95 -33 136 -6 16 11 46 18 73 18 42
0 46 2 63 38 14 28 33 45 77 67 31 16 81 43 109 59 43 26 55 29 70 19 15 -9
24 -8 45 5 14 10 26 25 26 33 0 9 16 31 37 50 31 29 36 40 37 80 1 42 -3 49
-39 81 -22 19 -56 44 -75 54 -19 11 -55 31 -80 45 -27 15 -54 23 -66 20 -12
-3 -38 1 -58 9 -41 17 -62 18 -96 2z m76 -23 c12 -17 19 -21 24 -13 7 11 98
-33 154 -74 19 -14 19 -15 -12 -31 -42 -21 -51 -20 -46 7 3 14 -1 11 -11 -10
-9 -20 -31 -41 -55 -53 -47 -24 -110 -77 -110 -94 0 -6 -8 -21 -18 -34 -16
-20 -19 -21 -37 -8 -20 15 -20 15 0 10 15 -4 25 5 43 37 13 23 20 45 15 49 -8
8 -26 18 -132 75 l-53 29 -24 -27 c-13 -16 -24 -37 -24 -48 0 -10 -4 -19 -10
-19 -14 0 -13 6 6 43 21 41 54 77 71 77 7 0 13 4 13 10 0 8 51 40 64 40 3 0 2
-8 -1 -17 -6 -16 -5 -16 10 -4 9 7 17 20 17 27 0 13 64 53 87 54 7 0 20 -12
29 -26z m153 -30 c67 -38 141 -88 141 -95 0 -4 -11 -14 -25 -23 -25 -16 -26
-16 -36 11 -15 39 -36 60 -91 90 -26 14 -48 30 -48 35 0 13 10 10 59 -18z m67
-119 c7 -29 23 -31 64 -10 18 10 31 11 35 5 8 -13 -4 -50 -16 -50 -5 0 -9 -8
-9 -18 0 -27 -20 -44 -37 -30 -11 9 -10 13 4 23 10 8 15 16 12 19 -3 4 -17 -3
-32 -14 -14 -11 -30 -20 -36 -20 -15 0 -31 -34 -31 -64 0 -32 -12 -33 -34 -3
-16 22 -16 22 -10 -12 5 -29 4 -33 -10 -28 -9 4 -16 2 -16 -2 0 -11 -137 -91
-155 -91 -8 0 -17 5 -20 10 -19 31 -85 -13 -85 -57 0 -16 -11 -28 -40 -43 -21
-11 -44 -20 -51 -20 -18 0 -5 87 17 111 26 29 91 61 99 49 9 -15 28 -12 22 4
-3 8 4 22 15 33 12 10 29 36 39 59 24 52 42 68 147 126 100 55 119 58 128 23z
m-396 -51 c0 -9 17 -14 53 -17 l52 -3 -62 -2 c-50 -2 -63 1 -63 13 0 11 -12
15 -42 16 -34 1 -38 2 -18 8 35 10 80 1 80 -15z m-115 -24 c5 -9 69 -40 82
-40 2 0 1 5 -3 12 -4 7 -3 8 5 4 6 -4 9 -11 6 -16 -3 -5 20 -24 50 -43 60 -37
60 -43 -6 -70 -48 -20 -106 -78 -114 -116 l-6 -30 -32 19 c-18 10 -57 32 -87
49 -32 17 -53 36 -51 43 2 7 5 24 5 38 1 20 -4 25 -21 24 -26 -1 -29 13 -8 40
12 16 17 17 31 5 15 -12 16 -12 10 7 -6 18 2 27 46 52 56 32 83 39 93 22z
m525 -74 c0 -8 -4 -17 -9 -21 -12 -7 -24 12 -16 25 9 15 25 12 25 -4z m-685
-75 c3 -5 1 -12 -5 -16 -5 -3 -10 1 -10 9 0 18 6 21 15 7z m365 -105 c0 -18
-16 -29 -30 -21 -13 8 -1 35 16 35 8 0 14 -6 14 -14z"/>
<path d="M2516 1844 c-8 -21 -8 -24 3 -24 12 0 22 28 12 35 -5 3 -12 -2 -15
-11z"/>
<path d="M2620 1833 c0 -4 5 -15 10 -23 8 -13 10 -13 10 2 0 9 -4 20 -10 23
-5 3 -10 3 -10 -2z"/>
<path d="M2470 1795 c0 -14 5 -25 10 -25 6 0 10 11 10 25 0 14 -4 25 -10 25
-5 0 -10 -11 -10 -25z"/>
<path d="M2570 1792 c0 -12 19 -26 26 -19 2 2 -2 10 -11 17 -9 8 -15 8 -15 2z"/>
<path d="M2392 1768 c5 -15 28 -23 28 -10 0 5 -7 13 -16 16 -10 4 -14 1 -12
-6z"/>
<path d="M2550 1733 c0 -13 5 -23 10 -23 13 0 13 11 0 30 -8 12 -10 11 -10 -7z"/>
<path d="M2480 1725 c-7 -8 -8 -15 -2 -15 5 0 15 7 22 15 7 8 8 15 2 15 -5 0
-15 -7 -22 -15z"/>
<path d="M2710 1731 c-29 -15 -36 -25 -38 -55 -2 -20 0 -36 5 -36 13 1 86 54
90 65 2 6 -2 19 -9 28 -12 16 -15 16 -48 -2z"/>
<path d="M2595 1667 c-28 -18 -59 -49 -70 -69 -20 -37 -20 -37 0 -52 20 -15
20 -15 1 -16 -15 0 -17 -3 -8 -12 15 -15 52 16 52 43 0 10 17 27 40 40 36 20
40 27 40 61 0 21 -1 38 -3 38 -1 0 -25 -15 -52 -33z"/>
<path d="M2628 1583 c7 -3 16 -2 19 1 4 3 -2 6 -13 5 -11 0 -14 -3 -6 -6z"/>
<path d="M2577 1523 c-12 -12 -7 -22 8 -17 8 4 15 10 15 15 0 11 -14 12 -23 2z"/>
<path d="M2320 1411 c0 -5 7 -14 15 -21 16 -14 18 -10 9 14 -6 17 -24 22 -24
7z"/>
<path d="M2210 1636 c0 -2 7 -9 15 -16 13 -11 14 -10 9 4 -5 14 -24 23 -24 12z"/>
<path d="M2160 1555 c-7 -8 -8 -15 -2 -15 5 0 15 7 22 15 7 8 8 15 2 15 -5 0
-15 -7 -22 -15z"/>
<path d="M2260 1545 c7 -9 15 -13 17 -11 7 7 -7 26 -19 26 -6 0 -6 -6 2 -15z"/>
<path d="M2370 1550 c0 -5 6 -10 14 -10 8 0 18 5 21 10 3 6 -3 10 -14 10 -12
0 -21 -4 -21 -10z"/>
<path d="M2300 1489 c0 -11 5 -17 10 -14 6 3 10 13 10 21 0 8 -4 14 -10 14 -5
0 -10 -9 -10 -21z"/>
<path d="M2136 1467 c3 -8 20 -21 39 -30 30 -14 35 -15 35 -2 0 8 -13 21 -30
30 -36 19 -51 19 -44 2z"/>
<path d="M2234 1436 c-9 -24 4 -48 23 -44 24 4 24 52 0 56 -9 2 -20 -4 -23
-12z m36 -15 c0 -6 -4 -13 -10 -16 -5 -3 -10 1 -10 9 0 9 5 16 10 16 6 0 10
-4 10 -9z"/>
<path d="M3340 1837 c-13 -7 -25 -16 -27 -22 -1 -5 50 -40 114 -76 64 -36 118
-70 120 -75 2 -6 -9 -16 -24 -24 l-28 -13 40 -12 c53 -17 234 -50 240 -43 3 3
-18 39 -46 81 -44 65 -54 75 -70 67 -31 -17 -48 -12 -152 48 -150 86 -140 82
-167 69z"/>
<path d="M3054 1323 c-17 -8 -36 -23 -42 -34 -11 -17 -7 -22 28 -47 21 -15 39
-30 40 -34 0 -4 -13 -14 -30 -23 -37 -19 -42 -55 -7 -55 24 0 121 52 133 71 8
13 -13 33 -67 62 l-33 19 27 16 c57 35 15 57 -49 25z"/>
<path d="M3138 1298 c-46 -16 -32 -26 36 -25 55 2 68 -1 90 -22 32 -30 32 -42
3 -77 -21 -24 -30 -27 -85 -26 -34 0 -62 -3 -62 -7 0 -14 28 -21 80 -21 41 0
54 5 84 34 40 37 45 69 18 102 -37 47 -105 64 -164 42z"/>
<path d="M2962 1118 c-16 -19 1 -40 29 -36 16 2 24 10 24 23 0 24 -36 33 -53
13z"/>
<path d="M2752 2603 c2 -20 8 -28 23 -28 31 0 28 49 -3 53 -20 3 -23 0 -20
-25z"/>
<path d="M2822 2565 c2 -9 18 -25 36 -36 31 -20 32 -20 32 -2 0 12 -13 26 -36
36 -31 15 -35 16 -32 2z"/>
<path d="M2921 2541 c-7 -5 -11 -19 -9 -32 4 -31 42 -33 46 -3 4 25 -19 46
-37 35z m16 -33 c-3 -8 -6 -5 -6 6 -1 11 2 17 5 13 3 -3 4 -12 1 -19z"/>
<path d="M1120 2490 c-16 -16 -20 -33 -20 -84 0 -35 3 -71 6 -80 10 -27 24
-18 24 15 0 19 10 43 25 61 43 51 46 108 5 108 -11 0 -29 -9 -40 -20z m50 -24
c0 -8 -8 -22 -17 -32 -17 -17 -18 -17 -21 0 -2 9 -1 24 2 32 7 18 36 18 36 0z"/>
<path d="M2173 2108 c-18 -9 -23 -20 -23 -50 0 -21 3 -38 8 -38 13 0 82 50 82
60 0 38 -25 48 -67 28z m47 -16 c0 -10 -13 -26 -30 -35 -29 -18 -30 -18 -30 2
0 12 11 27 28 35 34 19 32 19 32 -2z"/>
<path d="M2063 2042 c-23 -15 -51 -43 -62 -63 -22 -39 -27 -64 -12 -54 5 3 12
1 16 -5 3 -5 -2 -10 -12 -10 -15 0 -15 -2 -4 -9 22 -14 51 6 51 34 0 19 10 30
40 45 35 18 40 25 40 55 0 19 -3 35 -7 35 -5 0 -27 -13 -50 -28z m47 -17 c0
-16 -78 -60 -88 -50 -9 9 54 65 73 65 8 0 15 -7 15 -15z"/>
<path d="M2100 1959 c0 -5 5 -7 10 -4 6 3 10 8 10 11 0 2 -4 4 -10 4 -5 0 -10
-5 -10 -11z"/>
</g>
</svg>
