<?xml version="1.0" standalone="no"?>
<!DOCTYPE svg PUBLIC "-//W3C//DTD SVG 20010904//EN"
 "http://www.w3.org/TR/2001/REC-SVG-20010904/DTD/svg10.dtd">
<svg version="1.0" xmlns="http://www.w3.org/2000/svg"
 width="1366.000000pt" height="768.000000pt" viewBox="0 0 1366.000000 768.000000"
 preserveAspectRatio="xMidYMid meet">
<metadata>
Created by potrace 1.16, written by Peter Selinger 2001-2019
</metadata>
<g transform="translate(0.000000,768.000000) scale(0.100000,-0.100000)"
fill="#000000" stroke="none">
<path d="M4198 6895 c-250 -61 -441 -246 -515 -500 -17 -56 -18 -210 -21
-2530 -1 -1519 1 -2503 7 -2556 31 -277 208 -495 478 -587 l78 -27 2535 0
c2083 0 2545 2 2590 13 30 8 96 34 147 58 163 80 284 217 347 393 l31 86 0
2555 0 2555 -23 70 c-80 240 -276 421 -508 470 -101 21 -5058 21 -5146 0z
m3252 -569 c429 -64 717 -172 976 -367 290 -217 467 -509 544 -894 28 -138 39
-473 20 -622 -34 -281 -114 -505 -251 -710 -70 -104 -252 -284 -364 -360 -292
-197 -643 -304 -1129 -343 -71 -5 -353 -10 -627 -10 l-499 0 0 -885 0 -885
-655 0 -655 0 0 2550 0 2551 1263 -4 c1131 -3 1274 -5 1377 -21z"/>
<path d="M6120 4690 l0 -711 468 3 c445 4 471 5 547 26 262 72 432 237 491
477 27 108 24 316 -5 420 -35 127 -77 201 -157 282 -59 58 -90 80 -175 122
-169 81 -185 83 -711 88 l-458 5 0 -712z"/>
</g>
</svg>
