<?xml version="1.0" standalone="no"?>
<!DOCTYPE svg PUBLIC "-//W3C//DTD SVG 20010904//EN"
 "http://www.w3.org/TR/2001/REC-SVG-20010904/DTD/svg10.dtd">
<svg version="1.0" xmlns="http://www.w3.org/2000/svg"
 width="183.000000pt" height="275.000000pt" viewBox="0 0 183.000000 275.000000"
 preserveAspectRatio="xMidYMid meet">

<g transform="translate(0.000000,275.000000) scale(0.100000,-0.100000)"
fill="#000000" stroke="none">
<path d="M1413 2725 c15 -13 27 -28 27 -34 0 -5 8 -12 18 -15 17 -6 236 -217
280 -270 12 -15 22 -34 22 -42 0 -8 5 -14 12 -14 7 0 22 -12 35 -27 l22 -28 1
228 0 227 -222 0 -223 -1 28 -24z"/>
<path d="M835 2476 c-160 -71 -241 -144 -302 -274 -46 -98 -54 -172 -35 -317
6 -44 6 -74 0 -82 -13 -16 -1 -67 28 -119 15 -26 24 -59 24 -84 0 -23 6 -56
14 -73 20 -45 55 -190 67 -272 10 -76 82 -235 106 -235 7 0 13 -4 13 -8 0 -16
59 -74 69 -68 11 7 34 -28 25 -37 -3 -3 0 -34 6 -68 7 -35 13 -68 14 -74 6
-36 83 -50 126 -23 17 11 22 10 29 0 7 -12 40 -7 51 9 9 13 142 58 156 52 8
-3 17 2 20 11 3 9 12 16 18 16 7 0 18 12 24 26 7 14 16 23 21 19 5 -3 15 11
22 30 15 40 16 41 47 19 12 -8 119 -65 237 -125 l215 -110 0 191 0 190 -32 37
c-35 41 -53 66 -67 98 -5 11 -19 30 -30 42 -12 12 -21 29 -21 38 0 9 -7 23
-15 32 -9 8 -19 28 -22 44 -3 16 -9 29 -13 29 -4 0 -28 42 -54 94 -43 89 -128
196 -155 196 -6 0 -11 6 -11 14 0 8 -4 16 -10 18 -16 5 -13 98 5 176 11 49 16
103 13 162 -3 78 -6 92 -28 115 -20 21 -22 28 -11 35 12 7 12 16 0 60 l-15 52
-99 53 c-55 30 -108 54 -117 55 -10 0 -34 9 -54 20 -35 20 -63 19 -34 -1 12
-8 11 -9 -5 -7 -11 2 -20 10 -20 17 0 25 -64 40 -110 26 l-40 -13 35 -1 c49
-2 129 -39 181 -84 35 -29 38 -35 17 -25 -16 6 -28 16 -28 21 0 5 -9 7 -20 4
-13 -3 -18 -1 -14 6 3 7 -1 4 -10 -6 -14 -18 -17 -17 -58 21 -24 21 -56 44
-73 49 -20 7 -29 16 -27 27 3 19 -13 20 -53 2z m51 -29 c46 -21 94 -51 94 -60
0 -5 -5 -5 -11 -1 -6 3 -14 1 -18 -5 -5 -8 -20 -2 -46 19 -21 16 -41 30 -45
30 -4 0 -7 7 -7 15 0 18 -2 18 33 2z m-12 -72 c-3 -6 5 -21 16 -33 28 -29 8
-28 -38 3 -20 14 -31 25 -24 25 10 0 9 4 -2 16 -9 8 -14 19 -11 24 8 12 64
-22 59 -35z m-110 -11 c9 -23 8 -23 -14 -19 -27 5 -25 -10 2 -29 16 -11 18
-16 7 -16 -8 0 -20 5 -27 12 -7 7 -12 8 -12 4 0 -5 -7 -3 -15 4 -27 22 -18 43
15 38 23 -3 30 -1 26 9 -3 7 -1 13 3 13 5 0 12 -7 15 -16z m181 -54 c3 -6 -1
-7 -9 -4 -18 7 -21 14 -7 14 6 0 13 -4 16 -10z m-106 -46 c14 9 58 -18 53 -32
-2 -6 -8 -12 -13 -12 -6 0 -8 4 -5 8 3 5 -15 14 -40 20 -24 7 -44 17 -44 22 0
7 7 7 20 0 11 -6 24 -8 29 -6z m-95 -63 c3 -4 -6 -6 -19 -3 -14 2 -25 6 -25 8
0 8 39 4 44 -5z m310 -31 c39 -6 77 -17 86 -25 9 -8 23 -15 30 -15 22 0 50
-31 50 -56 0 -13 4 -25 9 -28 4 -3 5 -24 1 -48 -5 -23 -6 -47 -3 -54 3 -9 -19
-11 -98 -7 -83 5 -104 3 -113 -9 -6 -8 -19 -17 -30 -21 -10 -4 -16 -13 -13
-20 3 -8 -7 -12 -32 -11 -55 1 -61 3 -61 20 0 36 -125 58 -164 29 -18 -14 -16
-15 35 -16 30 -1 45 -4 34 -6 -11 -3 -27 -11 -35 -19 -18 -15 -70 -22 -88 -10
-7 4 -19 1 -27 -8 -21 -20 -19 -40 3 -31 14 5 15 4 5 -6 -7 -7 -13 -16 -13
-19 0 -3 54 -4 120 -2 66 2 120 1 120 -3 0 -15 -31 -65 -41 -65 -6 0 -7 -5 -4
-10 11 -17 30 5 54 60 18 41 26 50 47 50 29 0 44 -31 44 -89 0 -39 22 -105 39
-115 10 -7 23 48 15 68 -4 11 3 12 43 4 26 -5 75 -8 108 -7 69 2 73 -8 24 -53
-16 -15 -29 -33 -29 -41 0 -14 -54 -77 -67 -77 -3 0 -15 -7 -25 -16 -25 -24
-45 -4 -54 54 -8 55 -21 67 -47 45 -21 -20 -82 -26 -109 -12 -29 16 -37 2 -40
-73 -2 -59 -4 -67 -21 -64 -10 1 -22 8 -27 15 -6 11 -12 11 -31 0 -13 -7 -30
-12 -37 -10 -9 1 -12 -6 -10 -21 3 -22 7 -23 88 -24 120 -2 120 -2 120 -19 0
-9 -9 -15 -24 -15 -13 0 -30 -7 -37 -16 -11 -14 -10 -19 9 -35 18 -14 39 -18
88 -18 36 1 68 -1 70 -4 3 -2 0 -15 -5 -29 -11 -28 -61 -45 -151 -52 -89 -6
-150 31 -157 96 -2 18 -7 34 -11 37 -16 12 -42 71 -44 98 -1 15 -6 33 -11 40
-5 7 -6 17 -2 23 6 9 -7 14 -28 11 -4 0 -6 2 -5 6 1 5 -6 21 -17 38 -17 24
-20 48 -22 138 -1 77 2 107 10 104 6 -2 15 -19 20 -38 9 -36 31 -59 56 -59 10
0 6 5 -9 13 -21 11 -25 20 -28 66 -4 62 3 71 55 82 32 7 27 8 -27 6 l-65 -3
16 66 c19 74 73 146 117 156 15 3 43 12 62 21 19 9 71 21 115 28 102 17 89 16
169 5z m-27 -286 c-3 -3 -12 -4 -19 -1 -8 3 -5 6 6 6 11 1 17 -2 13 -5z m48
-103 c-19 -8 -19 -8 2 -19 12 -7 37 -12 56 -12 40 0 70 -26 43 -36 -33 -13
-143 6 -167 29 l-24 22 23 3 c12 2 22 6 22 10 0 4 15 8 33 9 24 1 27 -1 12 -6z
m55 -273 c0 -7 3 -31 7 -53 8 -55 -5 -39 -16 18 -5 27 -5 47 0 47 5 0 9 -6 9
-12z m-42 -131 c-4 -30 -25 -32 -30 -3 -6 30 -1 37 19 29 8 -3 13 -15 11 -26z"/>
<path d="M707 1723 c18 -2 50 -2 70 0 21 2 7 4 -32 4 -38 0 -55 -2 -38 -4z"/>
<path d="M700 1564 c0 -7 -6 -15 -12 -17 -8 -3 -5 -6 5 -6 15 -1 18 -6 12 -33
-7 -37 2 -28 35 33 l19 36 -30 0 c-16 0 -29 -6 -29 -13z"/>
<path d="M905 280 c76 -10 150 -25 194 -39 25 -8 32 -8 24 0 -21 21 -147 49
-213 48 l-65 -2 60 -7z"/>
<path d="M1745 268 c-2 -7 -6 -60 -9 -118 -3 -58 -8 -115 -12 -128 -6 -20 -3
-22 38 -22 41 0 45 2 56 33 7 18 12 62 11 98 l-1 64 -36 -75 -36 -75 -4 39
c-2 22 -2 75 0 118 3 76 1 91 -7 66z"/>
<path d="M1199 170 c11 -19 21 -38 21 -42 0 -3 -21 1 -47 9 -91 28 -203 23
-203 -9 0 -13 45 -9 58 4 9 9 12 9 12 0 0 -17 -38 -34 -60 -27 -11 4 -20 15
-20 26 0 10 -7 19 -15 19 -22 0 -84 -59 -91 -86 -4 -15 -18 -27 -40 -34 -18
-6 -36 -16 -39 -21 -8 -11 495 -12 513 -1 21 14 3 72 -28 91 -15 9 -26 23 -25
32 3 19 -2 27 -34 54 l-23 20 21 -35z m76 -150 c3 -6 -1 -7 -9 -4 -18 7 -21
14 -7 14 6 0 13 -4 16 -10z"/>
<path d="M1 45 c-1 -36 2 -46 10 -38 8 8 8 22 1 50 l-10 38 -1 -50z"/>
<path d="M1313 35 c0 -22 2 -30 4 -17 2 12 2 30 0 40 -3 9 -5 -1 -4 -23z"/>
<path d="M1662 45 c-30 -34 -28 -45 8 -45 24 0 30 4 30 23 0 41 -14 49 -38 22z"/>
<path d="M36 15 c-3 -8 -1 -15 4 -15 6 0 10 7 10 15 0 8 -2 15 -4 15 -2 0 -6
-7 -10 -15z"/>
<path d="M457 23 c-10 -9 -9 -23 2 -23 5 0 11 7 15 15 5 15 -5 20 -17 8z"/>
<path d="M486 15 c-3 -8 -1 -15 4 -15 6 0 10 7 10 15 0 8 -2 15 -4 15 -2 0 -6
-7 -10 -15z"/>
</g>
</svg>
